<svg xmlns="http://www.w3.org/2000/svg" class="w-7 h-7"  fill="none" viewBox="0 0 24 24"> <g fill="none" fill-rule="evenodd"><rect class="w-6 h-6" style="stroke:rgba(0,0,0,0)"></rect><path d="M16.601,12.07 L15.318,13.353 L14.611,12.646 L15.894,11.363 C16.299,10.958 16.514,10.408 16.499,9.817 C16.484,9.215 16.234,8.642 15.796,8.204 C14.898,7.305 13.48,7.262 12.636,8.105 L11.353,9.388 L10.646,8.681 L11.929,7.398 C13.162,6.165 15.215,6.208 16.503,7.497 C17.123,8.117 17.477,8.932 17.499,9.791 C17.521,10.66 17.202,11.469 16.601,12.07 Z M10.353,14.353 L9.646,13.646 L13.646,9.646 L14.353,10.353 L10.353,14.353 Z M12.071,16.601 C11.472,17.2 10.679,17.498 9.874,17.498 C9.023,17.498 8.16,17.165 7.497,16.503 C6.209,15.214 6.165,13.162 7.399,11.928 L8.682,10.646 L9.389,11.353 L8.106,12.635 C7.262,13.48 7.306,14.897 8.204,15.796 C9.103,16.694 10.521,16.737 11.364,15.894 L12.646,14.611 L13.353,15.318 L12.071,16.601 Z M12,2 C6.477,2 2,6.477 2,12 C2,17.522 6.477,22 12,22 C17.523,22 22,17.522 22,12 C22,6.477 17.523,2 12,2 Z" fill="#FAAD00"></path></g></svg>