<svg xmlns="http://www.w3.org/2000/svg" className="w-7 h-7"  fill="none" viewBox="0 0 24 24"> <g fill="none" fill-rule="evenodd"><rect className="w-6 h-6" style="stroke:rgba(0,0,0,0)"></rect><path d="M14.5,15 L13,15 L13,14 L14.5,14 C15.603,14 16.5,13.103 16.5,12 C16.5,10.897 15.603,10 14.5,10 L13.011,10 L13.011,9 L14.5,9 C16.154,9 17.5,10.346 17.5,12 C17.5,13.654 16.154,15 14.5,15 Z M9.5,12.5 L14.5,12.5 L14.5,11.5 L9.5,11.5 L9.5,12.5 Z M11.011,15 L9.5,15 C7.846,15 6.5,13.654 6.5,12 C6.5,10.346 7.846,9 9.5,9 L10.995,9 L10.995,10 L9.5,10 C8.397,10 7.5,10.897 7.5,12 C7.5,13.103 8.397,14 9.5,14 L11.011,14 L11.011,15 Z M12,2 C6.477,2 2,6.477 2,12 C2,17.523 6.477,22 12,22 C17.523,22 22,17.523 22,12 C22,6.477 17.523,2 12,2 Z" fill="#FAAD00"></path></g></svg>