<svg xmlns="http://www.w3.org/2000/svg" class="w-7 h-7" fill="none" viewBox="0 0 24 24"> <g fill="none" fill-rule="evenodd"><rect class="w-7 h-7" style="stroke:rgba(0,0,0,0)"></rect><path d="M2,12 L2,6 L6.5,6 L6.5,5 C6.5,3.34314575 7.84314575,2 9.5,2 C11.1568543,2 12.5,3.34314575 12.5,5 L12.5,6 L17,6 L17,12 L19,12 C20.6568542,12 22,13.3431457 22,15 C22,16.6568543 20.6568542,18 19,18 L17,18 L17,22 L2,22 L2,18 L4,18 C5.65685425,18 7,16.6568543 7,15 C7,13.3431457 5.65685425,12 4,12 L2,12 Z" fill="#FAAD00"></path></g></svg>