<svg xmlns="http://www.w3.org/2000/svg" class="w-7 h-7" fill="none" viewBox="0 0 24 24"> <g fill="none" fill-rule="evenodd"><rect class="w-7 h-7" style="stroke:rgba(0,0,0,0)"></rect><path d="M14.892,4.283 L11.373,7.802 C11.209,7.964 10.989,8.054 10.759,8.053 L10.759,8.053 L4.257,8.053 L2,10.872 L6.557,11.52 L9.168,14.124 L3.999,19.292 L4.707,20 L9.875,14.829 L12.497,17.443 L13.145,22.001 L15.947,19.742 L15.947,13.241 C15.946,13.011 16.036,12.791 16.198,12.627 L16.198,12.627 L19.717,9.108 C21.182,7.653 22.003,5.672 22,3.609 L22,3.609 L22,2 L20.391,2 C20.388,2 20.384,2 20.381,2 L20.381,2 C18.321,2 16.344,2.82 14.892,4.283 L14.892,4.283 Z" fill="#FAAD00"></path></g></svg>